<svg xmlns="http://www.w3.org/2000/svg" viewBox="-25.362 -508.362 1338.893 211.537">
  <defs>
    <style>
      .cls-1 {
        fill: #fff;
        stroke: #00c800;
        stroke-linejoin: round;
        stroke-miterlimit: 10;
        stroke-width: 0.724px;
        fill-rule: evenodd;
      }
    </style>
  </defs>
  <g id="Flixbus-logo" transform="translate(-25.362 -508.362)">
    <path id="path3378" class="cls-1" d="M122.632-1139.625H266.008v42.023h-107l-6.413.712-4.288,2.141-2.852,4.277-.708,7.121v27.055H236.05v42.032H144.745v83.325h-53.5v-176.627l.713-9.974,2.85-7.833,5-6.418,6.413-4.268,7.849-2.853,8.562-.712Z" transform="translate(-90.884 1139.987)"/>
    <path id="path3380" class="cls-1" d="M293.109-1139.625h53.5V-986.5l.713,6.409,2.149,4.277,4.274,2.14,7.135.713h77.747v42.02H324.494l-9.275-.713-7.834-2.853-5.714-4.267-4.987-5.706-2.862-8.546L293.109-963v-176.627Z" transform="translate(-90.884 1139.987)"/>
    <path id="path3382" class="cls-1" d="M551.333-1139.625h63.481l44.224,65.531,44.224-65.531h64.2l-77.044,103.271L769.606-930.94H706.124l-47.086-68.371L612.68-930.94h-64.2l79.882-105.414-77.03-103.271Z" transform="translate(-90.884 1139.987)"/>
    <path id="path3384" class="cls-1" d="M841.653-1016.406V-986.5l.708,7.833,2.139,4.279,4.274,2.14,7.853.7h49.22l8.562-.7,6.413-2.14,5-4.991,2.134-5.7,1.426-9.257-1.426-8.55-2.134-6.4-4.288-4.282-6.413-2.127-7.849-.712H841.653Zm12.835-82.611-6.422.7-3.565,2.141-2.139,4.277-.708,6.409v29.908h64.194l7.849-.712,5.7-2.127,4.288-4.282,2.139-6.4.713-8.55-.713-7.833-2.139-5.692-4.288-4.282-5.7-2.853-7.849-.7H854.489Zm-34.95-40.608H928.67l14.261,1.429,11.414,3.565,9.275,5.692,7.849,7.833,5,10.686,2.848,12.818.713,15.675-.713,10.677-2.134,9.974-3.575,8.545-5.7,6.409-7.853,5.7-10.7,2.844v1.424l12.122,2.853,9.275,4.98,6.427,7.121,3.561,9.262,2.852,10.686.708,12.813-.708,12.826-2.139,11.4-2.852,9.26-5,8.547-7.126,6.407-9.275,4.981-11.414,3.566-14.271.713H819.539l-9.275-.713-7.849-2.853-6.422-4.267-4.278-5.706-2.848-8.546L787.442-963v-144.568l1.426-9.974,2.848-7.833,4.278-6.418,6.422-4.268,7.849-2.853,9.275-.712Z" transform="translate(-90.884 1139.987)"/>
    <path id="path3386" class="cls-1" d="M1017.119-1139.625h53.508v126.775l1.421,13.539,3.565,10.672,5.709,7.847,8.552,6.406,10.7,2.841,13.558,1.426,13.553-1.426,10.7-2.841,8.561-6.406,6.413-7.847,2.862-10.672,1.426-13.539v-126.775h53.5v128.911l-.713,17.807-3.561,14.954-5,12.827-7.135,10.674-9.265,8.547-10.7,6.419-12.845,4.98-14.266,3.566-15.7,2.128H1096.3l-15.687-2.128-14.271-3.566-12.84-4.98-10.7-6.419-9.274-8.547-7.14-10.674-4.987-12.827-3.561-14.954-.722-17.807v-128.911Z" transform="translate(-90.884 1139.987)"/>
    <path id="path3388" class="cls-1" d="M1289.613-1139.625h129.1v42.023H1310.287l-4.987.712-4.987,2.141-2.862,4.277-1.426,6.409.713,5.692,2.847,4.994,5,3.551,7.848,3.565L1385.9-1044.9l14.266,4.994,10.7,6.4,8.561,8.55,5.7,9.969,2.862,12.818,1.426,15.666-.713,13.539-2.848,12.1-4.288,9.973-6.413,8.547-8.562,6.407-11.414,3.566-13.558,1.426H1243.953v-42.02h115.554l7.14-.713,4.274-2.852,2.139-2.853,1.436-4.268v-3.565l-.713-4.98-2.862-4.282-4.987-4.268-7.853-2.853-81.318-24.928-12.127-4.98-9.27-7.121-6.413-9.257-4.288-10.686-2.852-12.115-.713-14.237,1.426-12.818,2.139-11.4,5-9.257,6.413-7.838,8.561-6.4,11.414-3.565,13.563-1.429Z" transform="translate(-90.884 1139.987)"/>
    <path id="path3390" class="cls-1" d="M464.311-1058.424h56.346V-930.94H464.311v-127.484Zm0-80.49h56.346v47.012H464.311v-47.012Z" transform="translate(-90.884 1139.987)"/>
  </g>
</svg>
